<?xml version="1.0" encoding="UTF-8" standalone="no"?>
<svg
   xmlns:dc="http://purl.org/dc/elements/1.1/"
   xmlns:cc="http://creativecommons.org/ns#"
   xmlns:rdf="http://www.w3.org/1999/02/22-rdf-syntax-ns#"
   xmlns:svg="http://www.w3.org/2000/svg"
   xmlns="http://www.w3.org/2000/svg"
   xmlns:sodipodi="http://sodipodi.sourceforge.net/DTD/sodipodi-0.dtd"
   xmlns:inkscape="http://www.inkscape.org/namespaces/inkscape"
   version="1.1"
   viewBox="50 135 404.17111 404.16507"
   id="svg19"
   sodipodi:docname="iapcWithSloganNoTitle.svg"
   inkscape:version="0.92.1 r"
   width="404.17111"
   height="404.16507">
  <metadata
     id="metadata25">
    <rdf:RDF>
      <cc:Work
         rdf:about="">
        <dc:format>image/svg+xml</dc:format>
        <dc:type
           rdf:resource="http://purl.org/dc/dcmitype/StillImage" />
        <dc:title></dc:title>
      </cc:Work>
    </rdf:RDF>
  </metadata>
  <defs
     id="defs23" />
  <sodipodi:namedview
     pagecolor="#ffffff"
     bordercolor="#666666"
     borderopacity="1"
     objecttolerance="10"
     gridtolerance="10"
     guidetolerance="10"
     inkscape:pageopacity="0"
     inkscape:pageshadow="2"
     inkscape:window-width="1920"
     inkscape:window-height="1141"
     id="namedview21"
     showgrid="false"
     inkscape:zoom="0.49166667"
     inkscape:cx="239.50028"
     inkscape:cy="163.49658"
     inkscape:window-x="0"
     inkscape:window-y="33"
     inkscape:window-maximized="1"
     inkscape:current-layer="svg19"
     fit-margin-left="4"
     fit-margin-top="4"
     fit-margin-right="4"
     fit-margin-bottom="4" />
  <polygon
     id="square"
     points="94.017,474.129 202.332,192.086 484.374,300.394 376.072,582.437 "
     transform="translate(-37.109892,-50.178964)"
     style="fill:#ffffff;stroke:#d73a37;stroke-width:4.5" />
  <g
     id="txt-computers-components-advice"
     transform="translate(-37.109892,-50.178964)">
    <rect
       x="119"
       y="524"
       width="335"
       height="26"
       rx="13"
       id="rect3"
       style="fill:#ffffff" />
    <path
       d="m 135.633,540.938 c -0.1,0.517 -0.189,1.077 -0.267,1.681 -1.402,0.285 -2.686,0.428 -3.853,0.428 -1.039,0 -2.042,-0.159 -3.01,-0.477 -0.968,-0.317 -1.809,-0.808 -2.524,-1.472 -0.715,-0.663 -1.236,-1.445 -1.563,-2.344 -0.328,-0.899 -0.491,-1.863 -0.491,-2.891 0,-1.099 0.182,-2.158 0.544,-3.18 0.363,-1.02 0.913,-1.885 1.649,-2.596 0.736,-0.71 1.625,-1.241 2.668,-1.595 1.043,-0.354 2.133,-0.53 3.271,-0.53 1.224,0 2.444,0.129 3.661,0.386 0.007,0.361 0.046,0.915 0.118,1.659 -0.79,-0.242 -1.462,-0.405 -2.017,-0.487 -0.555,-0.082 -1.082,-0.123 -1.58,-0.123 -0.847,0 -1.658,0.131 -2.433,0.391 -0.776,0.261 -1.462,0.677 -2.06,1.247 -0.598,0.571 -1.055,1.272 -1.372,2.104 -0.316,0.832 -0.475,1.697 -0.475,2.596 0,0.835 0.126,1.628 0.379,2.377 0.252,0.749 0.64,1.383 1.163,1.9 0.523,0.517 1.144,0.913 1.862,1.188 0.719,0.275 1.526,0.412 2.423,0.412 1.132,0 2.434,-0.224 3.907,-0.674 z m 7.599,-9.216 c 0.747,0 1.458,0.107 2.134,0.321 0.676,0.214 1.261,0.553 1.756,1.017 0.494,0.464 0.87,1.049 1.126,1.756 0.256,0.706 0.384,1.452 0.384,2.237 0,0.849 -0.137,1.663 -0.411,2.44 -0.274,0.778 -0.658,1.438 -1.152,1.98 -0.495,0.542 -1.1,0.94 -1.814,1.193 -0.715,0.253 -1.482,0.38 -2.3,0.38 -0.762,0 -1.48,-0.114 -2.156,-0.343 -0.676,-0.228 -1.261,-0.585 -1.755,-1.07 -0.494,-0.485 -0.87,-1.079 -1.126,-1.782 -0.256,-0.703 -0.384,-1.439 -0.384,-2.21 0,-1.163 0.235,-2.211 0.705,-3.143 0.469,-0.931 1.16,-1.627 2.07,-2.087 0.91,-0.46 1.884,-0.689 2.923,-0.689 z m -0.048,1.359 c -0.725,0 -1.391,0.182 -1.998,0.546 -0.607,0.364 -1.057,0.912 -1.348,1.644 -0.292,0.731 -0.437,1.528 -0.437,2.393 0,0.756 0.121,1.436 0.362,2.039 0.242,0.603 0.64,1.09 1.194,1.461 0.554,0.371 1.222,0.557 2.003,0.557 0.533,0 1.037,-0.091 1.513,-0.273 0.476,-0.182 0.892,-0.483 1.247,-0.904 0.355,-0.421 0.618,-0.937 0.789,-1.547 0.17,-0.61 0.256,-1.25 0.256,-1.921 0,-0.628 -0.085,-1.217 -0.256,-1.767 -0.171,-0.55 -0.432,-0.99 -0.783,-1.322 -0.352,-0.332 -0.75,-0.565 -1.194,-0.701 -0.444,-0.137 -0.894,-0.205 -1.348,-0.205 z m 7.519,9.731 0.117,-1.552 c 0.021,-0.328 0.05,-0.846 0.085,-1.553 l 0.256,-6.519 c 0.007,-0.535 0.011,-0.942 0.011,-1.221 0.334,0.007 0.641,0.011 0.918,0.011 0.299,0 0.594,-0.004 0.886,-0.011 l -0.096,1.991 c 0.242,-0.399 0.46,-0.718 0.656,-0.953 0.196,-0.235 0.454,-0.453 0.774,-0.652 0.32,-0.2 0.685,-0.355 1.094,-0.466 0.409,-0.111 0.834,-0.166 1.275,-0.166 0.306,0 0.608,0.036 0.907,0.107 0.299,0.071 0.575,0.171 0.827,0.299 0.252,0.129 0.47,0.275 0.651,0.439 0.182,0.164 0.327,0.343 0.438,0.535 0.111,0.192 0.223,0.471 0.336,0.835 0.434,-0.82 0.977,-1.396 1.627,-1.724 0.65,-0.328 1.378,-0.492 2.183,-0.492 0.512,0 1.008,0.082 1.489,0.246 0.481,0.164 0.863,0.399 1.147,0.707 0.284,0.307 0.475,0.626 0.571,0.958 0.096,0.331 0.144,0.665 0.144,1 0,0.343 -0.025,0.856 -0.074,1.542 -0.049,0.685 -0.106,1.729 -0.169,3.131 -0.063,1.402 -0.099,2.571 -0.106,3.506 -0.377,-0.015 -0.673,-0.021 -0.887,-0.021 -0.229,0 -0.566,0.007 -1.016,0.021 0.078,-0.964 0.146,-2.013 0.203,-3.147 l 0.139,-2.654 c 0.036,-0.643 0.053,-1.195 0.053,-1.659 0,-0.416 -0.042,-0.74 -0.128,-0.974 -0.086,-0.234 -0.223,-0.442 -0.411,-0.629 -0.188,-0.187 -0.421,-0.328 -0.699,-0.425 -0.278,-0.098 -0.594,-0.146 -0.95,-0.146 -0.285,0 -0.547,0.032 -0.79,0.097 -0.228,0.064 -0.448,0.16 -0.662,0.289 -0.235,0.137 -0.445,0.305 -0.629,0.505 -0.185,0.193 -0.342,0.411 -0.47,0.654 -0.135,0.251 -0.246,0.548 -0.331,0.892 -0.106,0.429 -0.181,0.955 -0.224,1.577 -0.049,0.664 -0.088,1.538 -0.116,2.623 l -0.084,2.997 c -0.413,-0.015 -0.723,-0.021 -0.93,-0.021 -0.192,0 -0.516,0.007 -0.972,0.021 0.071,-0.885 0.127,-1.795 0.17,-2.729 l 0.127,-2.591 c 0.036,-0.799 0.053,-1.48 0.053,-2.044 0,-0.364 -0.036,-0.673 -0.106,-0.927 -0.071,-0.253 -0.205,-0.485 -0.4,-0.695 -0.195,-0.211 -0.432,-0.371 -0.709,-0.481 -0.277,-0.111 -0.583,-0.166 -0.917,-0.166 -0.356,0 -0.694,0.063 -1.014,0.188 -0.32,0.124 -0.616,0.309 -0.886,0.551 -0.27,0.243 -0.498,0.541 -0.683,0.894 -0.185,0.354 -0.329,0.817 -0.432,1.392 -0.103,0.575 -0.185,1.576 -0.245,3.003 -0.06,1.428 -0.09,2.63 -0.09,3.607 -0.456,-0.015 -0.769,-0.021 -0.94,-0.021 -0.184,-0.001 -0.508,0.006 -0.971,0.021 z m 18.548,4.838 c 0.143,-1.842 0.277,-4.347 0.402,-7.515 0.125,-3.169 0.195,-5.76 0.209,-7.771 1.166,-0.25 2.1,-0.42 2.8,-0.509 0.7,-0.089 1.403,-0.134 2.107,-0.134 1.109,0 2.073,0.177 2.891,0.53 0.818,0.353 1.455,0.974 1.91,1.862 0.455,0.888 0.683,1.893 0.683,3.013 0,0.778 -0.107,1.529 -0.321,2.254 -0.213,0.725 -0.539,1.372 -0.977,1.942 -0.438,0.571 -0.967,1.001 -1.586,1.29 -0.62,0.289 -1.31,0.434 -2.072,0.434 -0.456,0 -0.894,-0.056 -1.313,-0.166 -0.42,-0.11 -0.785,-0.255 -1.095,-0.434 -0.31,-0.178 -0.569,-0.378 -0.779,-0.6 -0.21,-0.221 -0.465,-0.553 -0.764,-0.995 l -0.13,4.239 c -0.029,0.692 -0.043,1.191 -0.043,1.498 v 1.061 c -0.361,-0.015 -0.676,-0.021 -0.945,-0.021 -0.247,10e-4 -0.573,0.008 -0.977,0.022 z m 2.444,-14.012 -0.075,0.813 -0.053,1.113 c -0.029,0.585 -0.05,1.062 -0.064,1.429 -0.015,0.368 -0.021,0.627 -0.021,0.776 0,0.528 0.055,1.027 0.166,1.499 0.11,0.471 0.331,0.9 0.662,1.29 0.331,0.389 0.72,0.683 1.168,0.883 0.448,0.2 0.911,0.3 1.388,0.3 0.668,0 1.275,-0.186 1.819,-0.557 0.544,-0.371 0.97,-0.924 1.275,-1.659 0.306,-0.735 0.459,-1.538 0.459,-2.408 0,-0.878 -0.16,-1.635 -0.48,-2.27 -0.32,-0.636 -0.751,-1.094 -1.292,-1.376 -0.541,-0.281 -1.153,-0.423 -1.836,-0.423 -0.974,10e-4 -2.013,0.197 -3.116,0.59 z m 20.802,9.174 c -0.349,-0.015 -0.648,-0.021 -0.897,-0.021 -0.285,0 -0.58,0.007 -0.886,0.021 l 0.053,-2.066 c -0.17,0.321 -0.318,0.569 -0.443,0.744 -0.125,0.175 -0.279,0.347 -0.464,0.514 -0.185,0.168 -0.375,0.31 -0.571,0.423 -0.196,0.114 -0.425,0.217 -0.688,0.306 -0.263,0.089 -0.571,0.164 -0.923,0.225 -0.352,0.061 -0.728,0.091 -1.126,0.091 -0.868,0 -1.61,-0.132 -2.225,-0.396 -0.615,-0.265 -1.082,-0.639 -1.398,-1.124 -0.316,-0.485 -0.475,-1.149 -0.475,-1.991 0,-0.129 0.007,-0.347 0.021,-0.653 0.014,-0.307 0.036,-0.706 0.063,-1.199 l 0.18,-3.564 0.032,-1.146 c 0.007,-0.264 0.01,-0.599 0.01,-1.006 l 0.984,0.011 c 0.199,0 0.506,-0.004 0.919,-0.011 -0.101,1.249 -0.196,2.615 -0.287,4.1 -0.09,1.484 -0.135,2.434 -0.135,2.848 0,0.628 0.101,1.129 0.304,1.504 0.203,0.375 0.541,0.664 1.015,0.867 0.473,0.203 1.009,0.305 1.607,0.305 0.527,0 1.032,-0.092 1.517,-0.278 0.413,-0.164 0.762,-0.385 1.046,-0.663 0.306,-0.307 0.562,-0.703 0.769,-1.188 0.149,-0.356 0.264,-0.817 0.342,-1.381 0.05,-0.406 0.1,-1.138 0.149,-2.194 0.057,-1.284 0.096,-2.591 0.117,-3.918 l 0.994,0.011 c 0.214,0 0.513,-0.004 0.897,-0.011 -0.099,1.284 -0.216,3.236 -0.351,5.855 -0.079,1.438 -0.128,3.101 -0.15,4.985 z m 8.324,-1.414 c -0.079,0.35 -0.164,0.813 -0.256,1.392 -0.484,0.114 -0.868,0.186 -1.152,0.214 -0.285,0.028 -0.555,0.043 -0.811,0.043 -0.634,0 -1.144,-0.08 -1.532,-0.24 -0.388,-0.161 -0.685,-0.418 -0.891,-0.771 -0.207,-0.353 -0.31,-0.833 -0.31,-1.439 0,-0.078 0.003,-0.218 0.011,-0.418 0.007,-0.199 0.043,-0.896 0.109,-2.087 l 0.26,-4.796 h -1.426 c 0.029,-0.3 0.054,-0.728 0.075,-1.284 h 1.455 c 0.036,-0.399 0.072,-1.081 0.107,-2.045 0.667,-0.128 1.231,-0.249 1.693,-0.363 -0.05,1.056 -0.078,1.858 -0.084,2.408 h 2.966 c -0.036,0.449 -0.057,0.878 -0.064,1.284 h -2.955 l -0.285,6.027 -0.01,0.46 c 0,0.521 0.059,0.912 0.176,1.172 0.117,0.261 0.293,0.448 0.527,0.563 0.234,0.115 0.479,0.171 0.735,0.171 0.177,0 0.369,-0.015 0.575,-0.043 0.206,-0.028 0.568,-0.112 1.087,-0.248 z m 10.416,-0.289 c -0.085,0.393 -0.17,0.893 -0.256,1.499 -0.683,0.171 -1.275,0.287 -1.777,0.348 -0.502,0.061 -1.002,0.091 -1.5,0.091 -0.89,0 -1.688,-0.106 -2.396,-0.321 -0.708,-0.214 -1.314,-0.587 -1.82,-1.118 -0.506,-0.531 -0.868,-1.141 -1.088,-1.825 -0.221,-0.686 -0.331,-1.409 -0.331,-2.173 0,-1.063 0.203,-2.05 0.608,-2.96 0.405,-0.91 1.016,-1.625 1.83,-2.146 0.815,-0.521 1.848,-0.781 3.101,-0.781 0.647,0 1.266,0.095 1.857,0.283 0.59,0.189 1.082,0.477 1.473,0.862 0.392,0.385 0.694,0.861 0.907,1.429 0.213,0.568 0.32,1.187 0.32,1.857 0,0.257 -0.021,0.507 -0.064,0.749 h -8.143 c -0.029,0.393 -0.043,0.692 -0.043,0.899 0,0.749 0.157,1.439 0.47,2.071 0.313,0.632 0.775,1.109 1.388,1.435 0.612,0.325 1.316,0.487 2.113,0.487 0.918,0 2.034,-0.229 3.351,-0.686 z m -7.193,-5.095 h 6.361 c -0.007,-0.449 -0.036,-0.799 -0.085,-1.049 -0.05,-0.249 -0.143,-0.508 -0.278,-0.775 -0.135,-0.267 -0.318,-0.5 -0.549,-0.696 -0.231,-0.196 -0.509,-0.346 -0.833,-0.449 -0.324,-0.103 -0.674,-0.155 -1.051,-0.155 -0.406,0 -0.792,0.057 -1.158,0.171 -0.366,0.114 -0.69,0.271 -0.971,0.471 -0.281,0.2 -0.52,0.434 -0.715,0.701 -0.195,0.267 -0.341,0.526 -0.438,0.776 -0.097,0.25 -0.191,0.584 -0.283,1.005 z m 9.914,6.798 c 0.256,-4.117 0.384,-7.404 0.384,-9.859 l -0.011,-0.984 c 0.363,0.007 0.662,0.011 0.897,0.011 0.271,0 0.573,-0.004 0.907,-0.011 l -0.085,1.777 c 0.263,-0.442 0.496,-0.776 0.699,-1.001 0.203,-0.225 0.432,-0.41 0.688,-0.557 0.256,-0.147 0.546,-0.261 0.87,-0.343 0.324,-0.082 0.66,-0.123 1.009,-0.123 0.299,0 0.594,0.036 0.886,0.107 0.007,0.471 0.032,0.999 0.075,1.584 -0.441,-0.121 -0.836,-0.183 -1.185,-0.183 -0.42,0 -0.797,0.07 -1.131,0.209 -0.334,0.14 -0.635,0.35 -0.902,0.632 -0.267,0.282 -0.485,0.619 -0.656,1.012 -0.142,0.313 -0.25,0.721 -0.325,1.22 -0.075,0.5 -0.133,1.41 -0.176,2.73 -0.028,0.963 -0.042,1.983 -0.042,3.062 v 0.717 c -0.384,-0.015 -0.694,-0.021 -0.929,-0.021 -0.214,-0.001 -0.538,0.006 -0.973,0.021 z m 7.173,-0.204 -0.064,-0.787 c 0,-0.086 -0.028,-0.359 -0.085,-0.818 1.095,0.478 2.106,0.717 3.031,0.717 0.484,0 0.893,-0.063 1.228,-0.192 0.334,-0.128 0.585,-0.317 0.752,-0.57 0.167,-0.253 0.251,-0.514 0.251,-0.784 0,-0.149 -0.023,-0.299 -0.069,-0.448 -0.046,-0.149 -0.116,-0.293 -0.208,-0.432 -0.093,-0.139 -0.229,-0.292 -0.411,-0.459 -0.181,-0.167 -0.559,-0.482 -1.131,-0.946 -0.573,-0.464 -1.007,-0.826 -1.302,-1.087 -0.295,-0.261 -0.548,-0.528 -0.758,-0.803 -0.21,-0.275 -0.365,-0.551 -0.464,-0.829 -0.099,-0.278 -0.149,-0.561 -0.149,-0.846 0,-0.457 0.144,-0.899 0.433,-1.328 0.288,-0.428 0.704,-0.747 1.249,-0.958 0.544,-0.21 1.183,-0.315 1.916,-0.315 0.818,0 1.718,0.097 2.7,0.289 0.028,0.557 0.064,1.066 0.107,1.53 -0.797,-0.328 -1.583,-0.492 -2.359,-0.492 -0.42,0 -0.81,0.056 -1.168,0.166 -0.359,0.11 -0.623,0.276 -0.79,0.498 -0.167,0.221 -0.25,0.464 -0.25,0.728 0,0.172 0.028,0.336 0.085,0.492 0.057,0.157 0.158,0.327 0.304,0.509 0.146,0.182 0.322,0.362 0.528,0.541 0.207,0.178 0.617,0.514 1.233,1.006 0.615,0.492 1.037,0.856 1.265,1.092 0.228,0.235 0.423,0.479 0.587,0.728 0.164,0.25 0.283,0.498 0.357,0.744 0.074,0.246 0.112,0.498 0.112,0.755 0,0.5 -0.148,0.964 -0.443,1.392 -0.295,0.428 -0.735,0.76 -1.318,0.995 -0.583,0.236 -1.238,0.354 -1.963,0.354 -0.306,0 -0.666,-0.02 -1.078,-0.059 -0.412,-0.039 -0.763,-0.086 -1.051,-0.14 -0.293,-0.055 -0.65,-0.136 -1.077,-0.243 z m 8.111,2.548 c 0.541,-1.484 0.989,-2.802 1.345,-3.95 0.477,0.007 0.865,0.011 1.164,0.011 0.277,0 0.654,-0.004 1.131,-0.011 -0.256,0.442 -0.485,0.826 -0.688,1.15 -0.203,0.325 -0.521,0.862 -0.956,1.611 l -0.704,1.188 c -0.256,-0.008 -0.47,-0.011 -0.641,-0.011 -0.185,0.002 -0.402,0.004 -0.651,0.012 z m 19.402,-3.971 c -0.014,0.114 -0.051,0.326 -0.112,0.637 -0.061,0.311 -0.112,0.615 -0.155,0.915 -0.52,0.121 -1.019,0.204 -1.5,0.246 -0.48,0.043 -0.902,0.064 -1.265,0.064 -0.769,0 -1.478,-0.104 -2.129,-0.311 -0.651,-0.207 -1.219,-0.547 -1.703,-1.022 -0.484,-0.474 -0.839,-1.063 -1.067,-1.766 -0.228,-0.703 -0.342,-1.443 -0.342,-2.222 0,-1.049 0.185,-2.044 0.555,-2.986 0.37,-0.942 0.953,-1.681 1.75,-2.216 0.797,-0.535 1.882,-0.803 3.255,-0.803 1.01,0 1.996,0.136 2.956,0.406 0.043,0.607 0.082,1.106 0.118,1.499 -0.676,-0.214 -1.228,-0.358 -1.654,-0.434 -0.427,-0.075 -0.822,-0.112 -1.185,-0.112 -0.626,0 -1.187,0.114 -1.681,0.343 -0.494,0.229 -0.916,0.553 -1.265,0.974 -0.349,0.422 -0.6,0.921 -0.752,1.499 -0.152,0.578 -0.229,1.167 -0.229,1.767 0,0.806 0.125,1.513 0.374,2.119 0.249,0.606 0.685,1.076 1.308,1.407 0.623,0.332 1.321,0.498 2.097,0.498 0.755,10e-4 1.63,-0.167 2.626,-0.502 z m 7.749,-9.463 c 0.747,0 1.458,0.107 2.134,0.321 0.676,0.214 1.261,0.553 1.756,1.017 0.494,0.464 0.87,1.049 1.126,1.756 0.256,0.706 0.384,1.452 0.384,2.237 0,0.849 -0.137,1.663 -0.411,2.44 -0.274,0.778 -0.658,1.438 -1.152,1.98 -0.495,0.542 -1.1,0.94 -1.814,1.193 -0.715,0.253 -1.482,0.38 -2.3,0.38 -0.762,0 -1.48,-0.114 -2.156,-0.343 -0.676,-0.228 -1.261,-0.585 -1.755,-1.07 -0.494,-0.485 -0.87,-1.079 -1.126,-1.782 -0.256,-0.703 -0.384,-1.439 -0.384,-2.21 0,-1.163 0.235,-2.211 0.705,-3.143 0.469,-0.931 1.16,-1.627 2.07,-2.087 0.91,-0.46 1.884,-0.689 2.923,-0.689 z m -0.049,1.359 c -0.725,0 -1.391,0.182 -1.998,0.546 -0.607,0.364 -1.057,0.912 -1.348,1.644 -0.292,0.731 -0.437,1.528 -0.437,2.393 0,0.756 0.121,1.436 0.362,2.039 0.242,0.603 0.64,1.09 1.194,1.461 0.554,0.371 1.222,0.557 2.003,0.557 0.533,0 1.037,-0.091 1.513,-0.273 0.476,-0.182 0.892,-0.483 1.247,-0.904 0.355,-0.421 0.618,-0.937 0.789,-1.547 0.17,-0.61 0.256,-1.25 0.256,-1.921 0,-0.628 -0.085,-1.217 -0.256,-1.767 -0.171,-0.55 -0.432,-0.99 -0.783,-1.322 -0.352,-0.332 -0.75,-0.565 -1.194,-0.701 -0.443,-0.137 -0.893,-0.205 -1.348,-0.205 z m 7.519,9.731 0.117,-1.552 c 0.021,-0.328 0.05,-0.846 0.085,-1.553 l 0.256,-6.519 c 0.007,-0.535 0.011,-0.942 0.011,-1.221 0.334,0.007 0.641,0.011 0.918,0.011 0.299,0 0.594,-0.004 0.886,-0.011 l -0.096,1.991 c 0.242,-0.399 0.46,-0.718 0.656,-0.953 0.196,-0.235 0.454,-0.453 0.774,-0.652 0.32,-0.2 0.685,-0.355 1.094,-0.466 0.409,-0.111 0.834,-0.166 1.275,-0.166 0.306,0 0.608,0.036 0.907,0.107 0.299,0.071 0.575,0.171 0.827,0.299 0.252,0.129 0.47,0.275 0.651,0.439 0.182,0.164 0.327,0.343 0.438,0.535 0.111,0.192 0.223,0.471 0.336,0.835 0.434,-0.82 0.977,-1.396 1.627,-1.724 0.65,-0.328 1.378,-0.492 2.183,-0.492 0.512,0 1.008,0.082 1.489,0.246 0.481,0.164 0.863,0.399 1.147,0.707 0.284,0.307 0.475,0.626 0.571,0.958 0.096,0.331 0.144,0.665 0.144,1 0,0.343 -0.025,0.856 -0.074,1.542 -0.049,0.685 -0.106,1.729 -0.169,3.131 -0.063,1.402 -0.099,2.571 -0.106,3.506 -0.377,-0.015 -0.673,-0.021 -0.887,-0.021 -0.229,0 -0.566,0.007 -1.016,0.021 0.078,-0.964 0.146,-2.013 0.203,-3.147 l 0.139,-2.654 c 0.036,-0.643 0.053,-1.195 0.053,-1.659 0,-0.416 -0.042,-0.74 -0.128,-0.974 -0.086,-0.234 -0.223,-0.442 -0.411,-0.629 -0.188,-0.187 -0.421,-0.328 -0.699,-0.425 -0.278,-0.098 -0.594,-0.146 -0.95,-0.146 -0.285,0 -0.547,0.032 -0.79,0.097 -0.228,0.064 -0.448,0.16 -0.662,0.289 -0.235,0.137 -0.445,0.305 -0.629,0.505 -0.185,0.193 -0.342,0.411 -0.47,0.654 -0.135,0.251 -0.246,0.548 -0.331,0.892 -0.106,0.429 -0.181,0.955 -0.224,1.577 -0.049,0.664 -0.088,1.538 -0.116,2.623 l -0.084,2.997 c -0.413,-0.015 -0.723,-0.021 -0.93,-0.021 -0.192,0 -0.516,0.007 -0.972,0.021 0.071,-0.885 0.127,-1.795 0.17,-2.729 l 0.127,-2.591 c 0.036,-0.799 0.053,-1.48 0.053,-2.044 0,-0.364 -0.036,-0.673 -0.106,-0.927 -0.071,-0.253 -0.205,-0.485 -0.4,-0.695 -0.195,-0.211 -0.432,-0.371 -0.709,-0.481 -0.277,-0.111 -0.583,-0.166 -0.917,-0.166 -0.356,0 -0.694,0.063 -1.014,0.188 -0.32,0.124 -0.616,0.309 -0.886,0.551 -0.27,0.243 -0.498,0.541 -0.683,0.894 -0.185,0.354 -0.329,0.817 -0.432,1.392 -0.103,0.575 -0.185,1.576 -0.245,3.003 -0.06,1.428 -0.09,2.63 -0.09,3.607 -0.456,-0.015 -0.769,-0.021 -0.94,-0.021 -0.184,-0.001 -0.508,0.006 -0.971,0.021 z m 18.549,4.838 c 0.143,-1.842 0.277,-4.347 0.402,-7.515 0.125,-3.169 0.195,-5.76 0.209,-7.771 1.166,-0.25 2.1,-0.42 2.8,-0.509 0.7,-0.089 1.403,-0.134 2.107,-0.134 1.109,0 2.073,0.177 2.891,0.53 0.818,0.353 1.455,0.974 1.91,1.862 0.455,0.888 0.683,1.893 0.683,3.013 0,0.778 -0.107,1.529 -0.321,2.254 -0.213,0.725 -0.539,1.372 -0.977,1.942 -0.438,0.571 -0.967,1.001 -1.586,1.29 -0.62,0.289 -1.31,0.434 -2.072,0.434 -0.456,0 -0.894,-0.056 -1.313,-0.166 -0.42,-0.11 -0.785,-0.255 -1.095,-0.434 -0.31,-0.178 -0.569,-0.378 -0.779,-0.6 -0.21,-0.221 -0.465,-0.553 -0.764,-0.995 l -0.13,4.239 c -0.029,0.692 -0.043,1.191 -0.043,1.498 v 1.061 c -0.361,-0.015 -0.676,-0.021 -0.945,-0.021 -0.247,10e-4 -0.574,0.008 -0.977,0.022 z m 2.444,-14.012 -0.075,0.813 -0.053,1.113 c -0.029,0.585 -0.05,1.062 -0.064,1.429 -0.015,0.368 -0.021,0.627 -0.021,0.776 0,0.528 0.055,1.027 0.166,1.499 0.11,0.471 0.331,0.9 0.662,1.29 0.331,0.389 0.72,0.683 1.168,0.883 0.448,0.2 0.911,0.3 1.388,0.3 0.668,0 1.275,-0.186 1.819,-0.557 0.544,-0.371 0.97,-0.924 1.275,-1.659 0.306,-0.735 0.459,-1.538 0.459,-2.408 0,-0.878 -0.16,-1.635 -0.48,-2.27 -0.32,-0.636 -0.751,-1.094 -1.292,-1.376 -0.541,-0.281 -1.153,-0.423 -1.836,-0.423 -0.974,10e-4 -2.013,0.197 -3.116,0.59 z m 16.03,-1.916 c 0.747,0 1.458,0.107 2.134,0.321 0.676,0.214 1.261,0.553 1.756,1.017 0.494,0.464 0.87,1.049 1.126,1.756 0.256,0.706 0.384,1.452 0.384,2.237 0,0.849 -0.137,1.663 -0.411,2.44 -0.274,0.778 -0.658,1.438 -1.152,1.98 -0.495,0.542 -1.1,0.94 -1.814,1.193 -0.715,0.253 -1.482,0.38 -2.3,0.38 -0.762,0 -1.48,-0.114 -2.156,-0.343 -0.676,-0.228 -1.261,-0.585 -1.755,-1.07 -0.494,-0.485 -0.87,-1.079 -1.126,-1.782 -0.256,-0.703 -0.384,-1.439 -0.384,-2.21 0,-1.163 0.235,-2.211 0.705,-3.143 0.469,-0.931 1.16,-1.627 2.07,-2.087 0.91,-0.46 1.884,-0.689 2.923,-0.689 z m -0.048,1.359 c -0.725,0 -1.391,0.182 -1.998,0.546 -0.607,0.364 -1.057,0.912 -1.348,1.644 -0.292,0.731 -0.437,1.528 -0.437,2.393 0,0.756 0.121,1.436 0.362,2.039 0.242,0.603 0.64,1.09 1.194,1.461 0.554,0.371 1.222,0.557 2.003,0.557 0.533,0 1.037,-0.091 1.513,-0.273 0.476,-0.182 0.892,-0.483 1.247,-0.904 0.355,-0.421 0.618,-0.937 0.789,-1.547 0.17,-0.61 0.256,-1.25 0.256,-1.921 0,-0.628 -0.085,-1.217 -0.256,-1.767 -0.171,-0.55 -0.432,-0.99 -0.783,-1.322 -0.352,-0.332 -0.75,-0.565 -1.194,-0.701 -0.444,-0.137 -0.894,-0.205 -1.348,-0.205 z m 7.476,9.731 c 0.34,-4.475 0.517,-8.089 0.531,-10.844 l 0.962,0.011 c 0.235,0 0.544,-0.004 0.929,-0.011 l -0.141,2.141 c 0.178,-0.3 0.32,-0.529 0.427,-0.69 0.106,-0.16 0.249,-0.33 0.427,-0.508 0.178,-0.179 0.388,-0.345 0.63,-0.498 0.242,-0.153 0.525,-0.282 0.854,-0.386 0.329,-0.104 0.66,-0.18 0.998,-0.229 0.338,-0.049 0.674,-0.075 1.01,-0.075 0.611,0 1.201,0.075 1.771,0.225 0.568,0.15 1.037,0.395 1.404,0.733 0.365,0.339 0.611,0.719 0.736,1.14 0.125,0.422 0.188,0.875 0.188,1.359 0,0.094 -0.004,0.271 -0.012,0.536 -0.008,0.264 -0.021,0.609 -0.043,1.038 l -0.211,4.485 c -0.014,0.428 -0.025,0.952 -0.031,1.573 -0.32,-0.015 -0.623,-0.021 -0.908,-0.021 -0.35,0 -0.678,0.007 -0.984,0.021 0.072,-0.863 0.127,-1.695 0.162,-2.494 l 0.141,-2.494 c 0.043,-0.856 0.064,-1.502 0.064,-1.938 0,-0.628 -0.107,-1.129 -0.32,-1.504 -0.215,-0.375 -0.557,-0.664 -1.025,-0.867 -0.471,-0.203 -0.998,-0.305 -1.582,-0.305 -0.826,0 -1.535,0.196 -2.127,0.588 -0.541,0.364 -0.961,0.882 -1.26,1.553 -0.207,0.479 -0.353,1.185 -0.438,2.119 -0.109,1.121 -0.185,2.901 -0.228,5.342 -0.397,-0.015 -0.705,-0.021 -0.925,-0.021 -0.219,-0.001 -0.552,0.006 -0.999,0.021 z m 22.092,-1.703 c -0.086,0.393 -0.171,0.893 -0.257,1.499 -0.683,0.171 -1.275,0.287 -1.776,0.348 -0.502,0.061 -1.002,0.091 -1.5,0.091 -0.889,0 -1.688,-0.106 -2.396,-0.321 -0.708,-0.214 -1.314,-0.587 -1.819,-1.118 -0.506,-0.531 -0.868,-1.141 -1.089,-1.825 -0.221,-0.686 -0.331,-1.409 -0.331,-2.173 0,-1.063 0.203,-2.05 0.608,-2.96 0.405,-0.91 1.016,-1.625 1.83,-2.146 0.814,-0.521 1.849,-0.781 3.101,-0.781 0.647,0 1.267,0.095 1.857,0.283 0.59,0.189 1.081,0.477 1.473,0.862 0.391,0.385 0.693,0.861 0.907,1.429 0.213,0.567 0.32,1.187 0.32,1.857 0,0.257 -0.021,0.507 -0.064,0.749 h -8.144 c -0.028,0.393 -0.042,0.692 -0.042,0.899 0,0.749 0.156,1.439 0.47,2.071 0.313,0.632 0.775,1.109 1.387,1.435 0.612,0.325 1.316,0.487 2.113,0.487 0.919,0 2.036,-0.229 3.352,-0.686 z m -7.193,-5.095 h 6.36 c -0.007,-0.449 -0.035,-0.799 -0.085,-1.049 -0.05,-0.249 -0.143,-0.508 -0.277,-0.775 -0.136,-0.268 -0.318,-0.5 -0.55,-0.696 -0.232,-0.196 -0.509,-0.346 -0.833,-0.449 -0.323,-0.104 -0.674,-0.155 -1.051,-0.155 -0.405,0 -0.792,0.057 -1.158,0.171 -0.366,0.114 -0.69,0.271 -0.971,0.471 -0.281,0.2 -0.52,0.434 -0.715,0.701 -0.196,0.268 -0.342,0.526 -0.438,0.776 -0.096,0.249 -0.19,0.584 -0.282,1.005 z m 9.882,6.798 c 0.341,-4.475 0.518,-8.089 0.532,-10.844 l 0.961,0.011 c 0.235,0 0.545,-0.004 0.93,-0.011 l -0.141,2.141 c 0.178,-0.3 0.32,-0.529 0.427,-0.69 0.106,-0.16 0.249,-0.33 0.427,-0.508 0.178,-0.179 0.388,-0.345 0.63,-0.498 0.242,-0.153 0.526,-0.282 0.854,-0.386 0.327,-0.104 0.66,-0.18 0.998,-0.229 0.338,-0.049 0.674,-0.075 1.009,-0.075 0.611,0 1.202,0.075 1.771,0.225 0.569,0.15 1.038,0.395 1.404,0.733 0.366,0.338 0.612,0.719 0.736,1.14 0.125,0.422 0.188,0.875 0.188,1.359 0,0.094 -0.004,0.271 -0.011,0.536 -0.008,0.264 -0.021,0.609 -0.043,1.038 l -0.211,4.485 c -0.015,0.428 -0.025,0.952 -0.032,1.573 -0.32,-0.015 -0.623,-0.021 -0.908,-0.021 -0.35,0 -0.677,0.007 -0.983,0.021 0.072,-0.863 0.126,-1.695 0.162,-2.494 l 0.14,-2.494 c 0.043,-0.856 0.064,-1.502 0.064,-1.938 0,-0.628 -0.106,-1.129 -0.32,-1.504 -0.214,-0.375 -0.556,-0.664 -1.025,-0.867 -0.471,-0.203 -0.998,-0.305 -1.582,-0.305 -0.826,0 -1.535,0.196 -2.126,0.588 -0.541,0.364 -0.962,0.882 -1.261,1.553 -0.207,0.479 -0.353,1.185 -0.438,2.119 -0.108,1.121 -0.185,2.901 -0.228,5.342 -0.397,-0.015 -0.705,-0.021 -0.925,-0.021 -0.22,0 -0.553,0.006 -0.999,0.021 z m 18.698,-1.414 c -0.078,0.35 -0.163,0.813 -0.256,1.392 -0.483,0.114 -0.868,0.186 -1.152,0.214 -0.285,0.028 -0.555,0.043 -0.812,0.043 -0.633,0 -1.144,-0.08 -1.531,-0.24 -0.388,-0.161 -0.685,-0.418 -0.891,-0.771 -0.207,-0.353 -0.31,-0.833 -0.31,-1.439 0,-0.078 0.003,-0.218 0.011,-0.418 0.007,-0.199 0.043,-0.896 0.108,-2.087 l 0.261,-4.796 h -1.426 c 0.028,-0.3 0.053,-0.728 0.074,-1.284 h 1.455 c 0.036,-0.399 0.071,-1.081 0.107,-2.045 0.667,-0.128 1.231,-0.249 1.692,-0.363 -0.049,1.056 -0.077,1.858 -0.084,2.408 h 2.966 c -0.036,0.449 -0.057,0.878 -0.064,1.284 h -2.954 l -0.285,6.027 -0.011,0.46 c 0,0.521 0.059,0.912 0.176,1.172 0.117,0.261 0.293,0.448 0.527,0.563 0.235,0.114 0.479,0.171 0.735,0.171 0.178,0 0.37,-0.015 0.576,-0.043 0.207,-0.03 0.569,-0.112 1.088,-0.248 z m 1.067,1.21 -0.063,-0.787 c 0,-0.086 -0.028,-0.359 -0.086,-0.818 1.096,0.478 2.106,0.717 3.031,0.717 0.483,0 0.893,-0.063 1.228,-0.192 0.334,-0.128 0.585,-0.317 0.752,-0.57 0.167,-0.253 0.251,-0.514 0.251,-0.784 0,-0.149 -0.023,-0.299 -0.069,-0.448 -0.046,-0.149 -0.115,-0.293 -0.208,-0.432 -0.093,-0.139 -0.229,-0.292 -0.411,-0.459 -0.182,-0.167 -0.559,-0.482 -1.131,-0.946 -0.573,-0.464 -1.007,-0.826 -1.303,-1.087 -0.295,-0.261 -0.548,-0.528 -0.757,-0.803 -0.21,-0.274 -0.365,-0.551 -0.465,-0.829 -0.1,-0.278 -0.149,-0.561 -0.149,-0.846 0,-0.457 0.145,-0.899 0.433,-1.328 0.288,-0.428 0.704,-0.747 1.248,-0.958 0.545,-0.21 1.184,-0.315 1.916,-0.315 0.818,0 1.719,0.097 2.7,0.289 0.028,0.557 0.064,1.066 0.106,1.53 -0.797,-0.328 -1.583,-0.492 -2.358,-0.492 -0.42,0 -0.81,0.056 -1.169,0.166 -0.359,0.11 -0.622,0.276 -0.789,0.498 -0.168,0.221 -0.251,0.464 -0.251,0.728 0,0.172 0.028,0.336 0.085,0.492 0.058,0.157 0.158,0.327 0.305,0.509 0.146,0.182 0.321,0.362 0.528,0.541 0.206,0.178 0.617,0.514 1.232,1.006 0.615,0.492 1.037,0.856 1.265,1.092 0.228,0.236 0.423,0.479 0.587,0.728 0.164,0.25 0.283,0.498 0.357,0.744 0.075,0.246 0.112,0.498 0.112,0.755 0,0.5 -0.147,0.964 -0.443,1.392 -0.295,0.428 -0.734,0.76 -1.317,0.995 -0.584,0.236 -1.238,0.354 -1.964,0.354 -0.306,0 -0.665,-0.02 -1.078,-0.059 -0.413,-0.039 -0.763,-0.086 -1.051,-0.14 -0.288,-0.055 -0.647,-0.136 -1.074,-0.243 z m 25.027,-6.284 c 0.358,0.015 0.638,0.021 0.838,0.021 0.208,0 0.48,-0.007 0.816,-0.021 -0.007,0.742 -0.101,1.459 -0.282,2.151 -0.182,0.691 -0.447,1.337 -0.795,1.937 0.412,0.414 0.837,0.824 1.275,1.231 0.438,0.407 0.848,0.797 1.232,1.168 -0.506,-0.015 -0.886,-0.021 -1.143,-0.021 -0.319,0 -0.683,0.007 -1.088,0.021 l -1.548,-1.456 c -0.249,0.214 -0.464,0.39 -0.646,0.524 -0.182,0.136 -0.407,0.278 -0.678,0.429 -0.271,0.149 -0.569,0.278 -0.896,0.385 -0.327,0.107 -0.701,0.193 -1.121,0.257 -0.42,0.064 -0.85,0.097 -1.291,0.097 -1.003,0 -1.899,-0.164 -2.689,-0.492 -0.79,-0.328 -1.393,-0.807 -1.809,-1.435 -0.417,-0.628 -0.625,-1.323 -0.625,-2.087 0,-0.379 0.056,-0.755 0.166,-1.13 0.11,-0.374 0.306,-0.749 0.587,-1.124 0.281,-0.374 0.644,-0.729 1.089,-1.064 0.444,-0.336 1.058,-0.725 1.841,-1.167 -0.513,-0.742 -0.861,-1.361 -1.046,-1.857 -0.186,-0.496 -0.277,-0.965 -0.277,-1.407 0,-0.429 0.098,-0.856 0.293,-1.285 0.195,-0.428 0.485,-0.805 0.87,-1.129 0.384,-0.325 0.827,-0.557 1.328,-0.696 0.502,-0.139 1.026,-0.209 1.574,-0.209 0.37,0 0.76,0.034 1.169,0.103 0.409,0.067 0.895,0.19 1.457,0.369 0,0.709 0.007,1.219 0.021,1.53 -0.435,-0.249 -0.822,-0.423 -1.164,-0.519 -0.341,-0.097 -0.687,-0.145 -1.035,-0.145 -0.512,0 -0.975,0.095 -1.387,0.283 -0.413,0.189 -0.729,0.467 -0.95,0.831 -0.221,0.364 -0.331,0.746 -0.331,1.146 0,0.265 0.041,0.536 0.123,0.814 0.082,0.278 0.24,0.618 0.475,1.018 0.335,0.579 0.818,1.25 1.452,2.015 0.533,0.643 1.124,1.289 1.771,1.938 0.249,0.258 0.864,0.861 1.846,1.811 0.119,-0.257 0.201,-0.454 0.246,-0.593 0.046,-0.14 0.095,-0.339 0.147,-0.6 0.052,-0.26 0.092,-0.521 0.12,-0.78 0.031,-0.261 0.051,-0.547 0.065,-0.862 z m -1.664,3.94 c -0.89,-0.849 -1.658,-1.618 -2.306,-2.307 -0.648,-0.689 -1.31,-1.439 -1.985,-2.253 -0.6,0.363 -1.064,0.669 -1.393,0.919 -0.328,0.249 -0.599,0.516 -0.809,0.801 -0.211,0.285 -0.353,0.554 -0.424,0.807 -0.071,0.253 -0.106,0.508 -0.106,0.765 0,0.52 0.149,0.99 0.448,1.41 0.3,0.42 0.724,0.743 1.272,0.967 0.548,0.225 1.172,0.337 1.87,0.337 0.406,0 0.8,-0.041 1.182,-0.122 0.381,-0.081 0.712,-0.189 0.993,-0.324 0.282,-0.135 0.506,-0.274 0.674,-0.42 0.168,-0.146 0.362,-0.339 0.584,-0.58 z m 12.496,-6.573 c 0.064,-0.314 0.132,-0.778 0.203,-1.392 0.854,-0.222 1.596,-0.373 2.226,-0.455 0.629,-0.082 1.243,-0.123 1.841,-0.123 0.641,0 1.239,0.059 1.798,0.177 0.559,0.117 1.023,0.309 1.393,0.572 0.37,0.265 0.616,0.567 0.737,0.91 0.12,0.343 0.181,0.71 0.181,1.103 0,0.492 -0.037,1.318 -0.111,2.479 -0.074,1.159 -0.131,2.231 -0.169,3.216 -0.039,0.985 -0.059,1.863 -0.059,2.634 -0.385,-0.015 -0.698,-0.021 -0.94,-0.021 -0.229,0 -0.552,0.007 -0.973,0.021 l 0.228,-2.922 0.162,-3.458 c -0.25,0.192 -0.437,0.328 -0.562,0.407 -0.124,0.078 -0.265,0.151 -0.422,0.219 -0.156,0.068 -0.329,0.133 -0.518,0.193 -0.189,0.06 -0.556,0.165 -1.101,0.315 -0.544,0.149 -0.931,0.264 -1.158,0.343 -0.491,0.156 -0.88,0.313 -1.164,0.471 -0.285,0.157 -0.523,0.328 -0.716,0.514 -0.193,0.186 -0.328,0.371 -0.406,0.557 -0.093,0.229 -0.139,0.468 -0.139,0.718 0,0.385 0.114,0.721 0.342,1.006 0.228,0.285 0.514,0.483 0.859,0.594 0.345,0.111 0.759,0.166 1.243,0.166 0.299,0 0.611,-0.021 0.939,-0.063 0.327,-0.041 0.765,-0.149 1.313,-0.322 -0.1,0.275 -0.214,0.7 -0.342,1.273 -0.52,0.1 -0.942,0.162 -1.27,0.188 -0.328,0.024 -0.638,0.037 -0.929,0.037 -0.976,0 -1.736,-0.114 -2.284,-0.343 -0.548,-0.228 -0.957,-0.576 -1.228,-1.043 -0.271,-0.468 -0.405,-0.977 -0.405,-1.525 0,-0.321 0.048,-0.617 0.144,-0.889 0.097,-0.271 0.227,-0.518 0.39,-0.739 0.164,-0.221 0.397,-0.442 0.699,-0.663 0.303,-0.222 0.619,-0.403 0.95,-0.546 0.331,-0.143 0.717,-0.284 1.158,-0.423 0.441,-0.14 1.149,-0.326 2.124,-0.563 0.313,-0.071 0.58,-0.145 0.801,-0.219 0.221,-0.075 0.416,-0.148 0.587,-0.22 0.171,-0.072 0.32,-0.155 0.448,-0.252 0.128,-0.096 0.246,-0.214 0.353,-0.353 0.106,-0.14 0.185,-0.28 0.234,-0.423 0.049,-0.143 0.075,-0.286 0.075,-0.429 0,-0.35 -0.114,-0.649 -0.342,-0.899 -0.228,-0.249 -0.524,-0.424 -0.892,-0.524 -0.366,-0.1 -0.799,-0.149 -1.297,-0.149 -0.462,0 -0.938,0.037 -1.425,0.112 -0.487,0.075 -0.907,0.164 -1.26,0.268 -0.349,0.103 -0.789,0.258 -1.316,0.465 z m 21.025,9.142 c -0.42,-0.015 -0.712,-0.021 -0.875,-0.021 -0.179,0 -0.488,0 -0.93,0 l 0.128,-2.313 c -0.228,0.4 -0.423,0.709 -0.587,0.926 -0.164,0.218 -0.357,0.423 -0.582,0.616 -0.224,0.192 -0.483,0.365 -0.778,0.519 -0.296,0.154 -0.625,0.273 -0.987,0.359 -0.363,0.085 -0.747,0.128 -1.152,0.128 -0.69,0 -1.336,-0.125 -1.938,-0.374 -0.602,-0.25 -1.111,-0.607 -1.531,-1.071 -0.42,-0.464 -0.722,-1.004 -0.907,-1.621 -0.185,-0.617 -0.277,-1.262 -0.277,-1.933 0,-0.899 0.175,-1.784 0.522,-2.654 0.349,-0.871 0.842,-1.59 1.479,-2.157 0.637,-0.567 1.356,-0.962 2.161,-1.183 0.804,-0.222 1.657,-0.332 2.561,-0.332 0.626,0 1.369,0.071 2.23,0.214 0.035,-0.777 0.053,-1.424 0.053,-1.938 0,-0.742 -0.003,-1.342 -0.011,-1.798 l 0.973,0.011 c 0.241,0 0.565,-0.004 0.972,-0.011 l -0.31,6.046 -0.213,6.925 v 1.662 z m -1.538,-9.549 c -0.428,-0.128 -0.792,-0.21 -1.094,-0.246 -0.303,-0.035 -0.597,-0.054 -0.881,-0.054 -0.683,0 -1.336,0.099 -1.958,0.295 -0.622,0.196 -1.17,0.519 -1.644,0.969 -0.473,0.449 -0.838,1.021 -1.094,1.713 -0.256,0.692 -0.384,1.37 -0.384,2.033 0,0.664 0.121,1.283 0.362,1.857 0.242,0.574 0.617,1.024 1.126,1.349 0.509,0.325 1.101,0.487 1.776,0.487 0.406,0 0.776,-0.055 1.11,-0.166 0.334,-0.11 0.639,-0.272 0.912,-0.487 0.273,-0.214 0.532,-0.503 0.773,-0.866 0.242,-0.364 0.435,-0.785 0.576,-1.264 0.121,-0.421 0.21,-0.988 0.268,-1.702 0.028,-0.35 0.06,-1.023 0.096,-2.023 z m 7.294,9.528 -0.363,-1.081 c -0.121,-0.35 -0.406,-1.146 -0.854,-2.388 l -2.682,-7.375 c 0.434,0.007 0.775,0.011 1.024,0.011 0.271,0 0.591,-0.004 0.961,-0.011 l 0.225,0.749 c 0.063,0.215 0.174,0.557 0.331,1.028 l 2.512,7.461 3.385,-8.179 0.404,-1.06 c 0.421,0.007 0.756,0.011 1.006,0.011 0.25,0 0.585,-0.004 1.006,-0.011 l -1.386,2.986 -2.783,6.23 -0.683,1.627 c -0.441,-0.015 -0.786,-0.021 -1.035,-0.021 -0.256,10e-4 -0.613,0.008 -1.068,0.023 z m 7.926,0 0.185,-2.697 0.207,-4.604 0.087,-3.543 0.982,0.011 0.961,-0.011 c -0.079,1.113 -0.152,2.278 -0.218,3.495 -0.066,1.217 -0.118,2.546 -0.157,3.987 -0.04,1.441 -0.061,2.563 -0.061,3.361 -0.448,-0.015 -0.769,-0.021 -0.961,-0.021 -0.179,0 -0.52,0.007 -1.025,0.022 z m 0.49,-13.178 c 0.021,-0.67 0.032,-1.177 0.032,-1.52 0.392,0.015 0.736,0.021 1.035,0.021 0.377,0 0.719,-0.007 1.024,-0.021 -0.014,0.222 -0.035,0.728 -0.063,1.52 -0.385,-0.007 -0.716,-0.011 -0.993,-0.011 -0.277,0 -0.622,0.004 -1.035,0.011 z m 12.327,11.551 c -0.015,0.114 -0.052,0.326 -0.112,0.637 -0.06,0.311 -0.112,0.615 -0.154,0.915 -0.52,0.121 -1.02,0.204 -1.5,0.246 -0.48,0.043 -0.901,0.064 -1.265,0.064 -0.769,0 -1.479,-0.104 -2.129,-0.311 -0.651,-0.207 -1.219,-0.547 -1.702,-1.022 -0.484,-0.474 -0.84,-1.063 -1.067,-1.766 -0.227,-0.703 -0.342,-1.443 -0.342,-2.222 0,-1.049 0.185,-2.044 0.555,-2.986 0.37,-0.942 0.954,-1.681 1.751,-2.216 0.797,-0.535 1.882,-0.803 3.255,-0.803 1.01,0 1.995,0.136 2.956,0.406 0.043,0.607 0.082,1.106 0.117,1.499 -0.676,-0.214 -1.227,-0.358 -1.654,-0.434 -0.427,-0.075 -0.821,-0.112 -1.185,-0.112 -0.626,0 -1.187,0.114 -1.681,0.343 -0.494,0.229 -0.916,0.553 -1.265,0.974 -0.349,0.422 -0.6,0.921 -0.752,1.499 -0.153,0.578 -0.229,1.167 -0.229,1.767 0,0.806 0.124,1.513 0.373,2.119 0.249,0.606 0.685,1.076 1.308,1.407 0.622,0.332 1.321,0.498 2.097,0.498 0.753,10e-4 1.629,-0.167 2.625,-0.502 z m 11.217,-0.076 c -0.086,0.393 -0.171,0.893 -0.257,1.499 -0.683,0.171 -1.275,0.287 -1.776,0.348 -0.502,0.061 -1.002,0.091 -1.5,0.091 -0.889,0 -1.688,-0.106 -2.396,-0.321 -0.708,-0.214 -1.314,-0.587 -1.819,-1.118 -0.506,-0.531 -0.868,-1.141 -1.089,-1.825 -0.221,-0.686 -0.331,-1.409 -0.331,-2.173 0,-1.063 0.203,-2.05 0.608,-2.96 0.405,-0.91 1.016,-1.625 1.83,-2.146 0.814,-0.521 1.849,-0.781 3.101,-0.781 0.647,0 1.267,0.095 1.857,0.283 0.59,0.189 1.081,0.477 1.473,0.862 0.391,0.385 0.693,0.861 0.907,1.429 0.213,0.567 0.32,1.187 0.32,1.857 0,0.257 -0.021,0.507 -0.064,0.749 h -8.144 c -0.028,0.393 -0.042,0.692 -0.042,0.899 0,0.749 0.156,1.439 0.47,2.071 0.313,0.632 0.775,1.109 1.387,1.435 0.612,0.325 1.316,0.487 2.113,0.487 0.918,0 2.036,-0.229 3.352,-0.686 z m -7.193,-5.095 h 6.36 c -0.007,-0.449 -0.035,-0.799 -0.085,-1.049 -0.05,-0.249 -0.143,-0.508 -0.277,-0.775 -0.136,-0.268 -0.318,-0.5 -0.55,-0.696 -0.232,-0.196 -0.509,-0.346 -0.833,-0.449 -0.323,-0.104 -0.674,-0.155 -1.051,-0.155 -0.405,0 -0.792,0.057 -1.158,0.171 -0.366,0.114 -0.69,0.271 -0.971,0.471 -0.281,0.2 -0.52,0.434 -0.715,0.701 -0.196,0.268 -0.342,0.526 -0.438,0.776 -0.096,0.249 -0.191,0.584 -0.282,1.005 z"
       id="path5"
       inkscape:connector-curvature="0" />
  </g>
  <g
     id="computer"
     transform="translate(-37.109892,-50.178964)"
     style="fill:#252620;fill-rule:evenodd">
    <path
       id="outline"
       d="m 375.742,234.292 c 7.398,0.773 13.778,3.965 17.04,11.108 3.006,8.698 4.222,19.373 5.163,27.298 l -0.171,-0.084 c 1.628,16.364 0,35.997 2.408,53.481 -0.52,25.227 7.233,52.952 1.978,78.445 -1.626,9.903 0.872,20.326 -7.556,27.557 2.569,1.115 8.512,-1.55 8.673,3.193 1.722,3.438 2.59,7.403 2.59,11.714 -1.037,13.167 3.867,24.188 2.747,37.106 2.078,6.278 5.347,13.178 3.625,20.327 v 2.584 c -1.894,-1.213 -3.536,0.679 -4.478,1.807 -0.946,0.951 -3.012,2.412 -4.484,2.504 2.934,1.456 7.49,0.769 11.454,1.718 3.789,1.199 6.789,2.162 10.323,3.348 -1.111,2.248 -3.534,0.354 -5.327,1.731 -6.717,-1.982 -12.055,-0.865 -18.944,-1.982 -0.511,1.117 -1.021,0.177 -1.621,0 -1.558,-0.336 -4.227,0.776 -5.347,-0.336 -7.062,1.363 -17.218,-1.562 -23.761,2.835 -12.815,2.493 -25.652,5.256 -40.357,6.107 -26.082,1.132 -51.39,-0.341 -78.674,-3.005 l -1.461,1.452 c -35.195,-5.677 -109.31,-5.937 -109.31,-5.937 17.128,-3.61 32.882,-4.476 50.524,-4.736 v -0.34 c -3.694,-3.104 -12.312,0.601 -12.312,-6.892 -0.945,-6.627 -1.456,-14.637 -1.456,-21.535 0.17,-2.749 1.456,-6.629 -0.952,-8.09 h -2.062 c -1.553,-2.665 1.553,-3.013 3.014,-3.364 -0.611,-8.521 -1.461,-18.162 3.954,-25.052 3.875,-2.327 8.953,0.6 13.943,-0.251 24.531,1.112 52.411,0.073 76.517,-1.478 0.086,-0.165 0.346,-0.339 0.262,-0.599 -16.366,0.163 -33.737,0.864 -51.896,0.599 -14.384,-2.232 -33.138,-4.735 -36.581,-9.297 -3.625,-3.875 -5.347,-8.089 -5.252,-13.868 2.317,-9.38 7.994,-17.731 10.669,-26.772 2.241,-33.329 0,-67.697 -5.677,-101.357 -2.33,-12.58 -2.408,-26.787 -3.106,-40.398 0,-4.217 2.157,-8.351 3.106,-12.304 2.151,-3.362 5.16,-0.172 7.223,-2.76 9.467,-0.862 19.199,2.498 28.313,2.498 12.053,1.466 25.991,1.205 38.046,3.609 3.615,0.262 7.751,-0.419 11.535,0.262 27.797,0.52 54.489,-1.545 81.425,-4.217 7.397,-0.863 14.116,-5.688 21.426,-6.629 1.297,0.773 3.624,0.09 4.827,0 z"
       inkscape:connector-curvature="0" />
    <g
       id="g12"
       style="fill:#fdfdfe">
      <path
         id="monitor"
         d="m 386.586,244.022 c 9.303,26.095 8.602,55.805 9.202,85.169 0.699,23.341 5.691,45.473 2.593,68.036 0,0 0.781,27.812 -5.342,30.655 -6.453,1.89 -10.84,4.216 -17.297,5.596 -22.378,2.322 -42.693,4.306 -63.61,7.314 -21.779,-0.346 -66.099,1.036 -66.099,1.036 -18.25,0.601 -35.281,-2.322 -51.898,-4.135 -2.498,-2.153 -5.682,-3.005 -8.435,-4.992 -1.461,-3.36 -5.516,-6.713 -2.752,-10.848 5.937,-15.329 13.075,-28.762 11.447,-46.94 0,-14.293 -0.956,-30.48 -1.465,-46.325 -0.346,-1.472 -0.346,-3.87 0,-5.596 h 0.429 c 0,-9.389 -2.322,-17.831 -2.322,-27.305 -3.615,-14.114 -3.954,-30.135 -4.476,-45.206 4.736,-6.023 11.702,-4.225 18.416,-3.357 49.832,4.307 94.507,5.765 143.229,-1.723 10.755,-1.979 19.356,-9.564 30.8,-7.493"
         inkscape:connector-curvature="0" />
      <path
         id="case"
         d="m 399.162,436.831 c 2.568,3.187 3.169,8.962 2.83,13.178 -13.35,5.598 -29.004,10.332 -43.291,12.316 -24.447,5.856 -52.597,9.301 -75.913,8.867 -0.774,1.214 -2.417,0.264 -3.018,0 -9.903,0.864 -20.648,-0.086 -30.99,-0.259 -22.116,-0.419 -44.225,-4.56 -68.938,-5.336 -1.551,-4.644 -0.941,-9.557 1.723,-13.601 l 1.981,-1.137 c 56.798,7.77 116.277,-4.122 172.57,-9.202 1.894,-1.286 4.39,-0.945 6.459,-1.462 10.832,-2.413 22.807,-2.067 33.48,-3.966 1.209,-0.262 1.89,1.724 3.107,0.602 z m 3.429,19.642 c -7.235,2.584 -14.362,6.453 -21.336,8.865 l -17.739,4.746 c 0,-1.816 -0.26,-3.444 0.781,-5.261 0.682,0 1.983,-0.171 2.755,-0.866 12.555,-1.723 23.749,-5.937 35.108,-11.359 0.171,1.286 0.431,2.227 0.431,3.875 z m 3.009,33.24 c 1.121,3.872 3.444,8.087 3.364,11.962 -2.845,1.722 -2.412,4.404 -5.932,5.348 -10.332,0.774 -19.721,3.353 -29.624,6.372 -5.417,0.51 -10.832,1.037 -15.828,2.753 l -0.262,1.117 c -27.188,5.767 -60.501,4.991 -88.223,1.382 -22.548,-0.172 -43.629,-7.07 -64.632,-8.351 v -0.262 c -7.058,-0.52 -14.979,-3.783 -22.638,-2.593 -0.431,-10.244 -1.286,-18.934 -1.472,-29.702 21.947,3.36 44.677,5.682 66.194,6.554 20.741,2.153 36.581,-0.182 58.009,-0.182 27.459,-1.031 57.847,-7.759 83.4,-17.662 5.082,-2.229 9.558,-4.215 14.203,-7.219 1.56,9.638 2.671,20.757 3.441,30.483 z M 297.072,474.9 l 25.993,-1.981 c 0.341,1.812 2.669,4.214 1.031,5.17 -23.059,2.404 -46.66,2.748 -67.994,2.062 -12.127,-0.344 -25.134,-1.549 -37.618,-2.245 l -0.603,-0.513 c -12.215,-0.168 -25.636,-1.626 -37.087,-4.216 l -0.609,-5.857 c 39.169,7.24 76.515,8.26 116.887,7.58 z"
         inkscape:connector-curvature="0" />
    </g>
    <path
       id="face"
       d="m 367.052,266.925 c 0.511,9.825 3.953,19.125 7.828,27.897 4.648,13.099 3.956,28.685 5.593,42.723 v 56.834 c -1.377,5.005 0.611,11.028 -2.578,15.152 -12.056,6.295 -28.404,2.499 -42.094,6.374 -31.585,5.432 -62.83,5.948 -95.456,5.001 0.17,-0.17 -0.081,-0.266 -0.254,-0.434 -2.659,0.685 -5.758,-0.172 -8.693,-0.341 -4.733,-1.044 -11.608,-1.553 -16.69,-2.756 -0.941,-0.948 -0.341,-2.932 -0.441,-3.879 -1.372,-2.93 -0.941,-6.629 -2.573,-8.956 l 0.861,-1.462 c -2.403,-24.546 -4.73,-49.091 -4.476,-73.634 l -0.599,-0.857 c 0.69,-5.596 -0.262,-10.768 -0.262,-15.589 -0.434,-12.661 -0.696,-26.342 1.461,-37.978 3.706,-4.824 10.504,-2.159 15.32,-4.481 18.243,-6.616 36.145,-1.366 54.914,-2.492 29.348,0.949 54.654,0.43 84.004,-2.234 1.118,-2.417 3.523,-0.261 4.135,1.112 z m 9.455,73.973 c -3.099,-3.008 -6.181,-6.452 -8.34,-10.076 -4.04,-1.723 -3.789,-7.406 -6.464,-10.843 l -7.739,-9.735 c 1.978,-3.183 5.853,-4.913 8.612,-8.354 1.199,3.102 0.939,7.495 2.492,10.768 0.611,0.081 1.111,0 1.463,-0.604 -0.421,-4.82 -3.955,-10.766 -0.613,-14.987 1.818,-1.284 2.073,-3.188 3.195,-4.737 6.629,15.078 6.629,30.915 7.394,48.568 z M 217.031,315.415 c -1.719,2.071 -3.366,3.956 -5.078,5.939 -0.956,-4.39 -0.346,-9.812 -0.521,-14.894 1.212,3.532 9.209,4.12 5.599,8.955 z m 133.913,-2.416 c 5.943,7.235 10.931,14.641 14.384,23.078 3.276,3.192 7.141,7.068 9.813,10.943 0.08,2.229 -2.588,2.837 -3.619,4.474 -8.518,6.113 -19.1,8.526 -28.141,13.608 l -0.78,-0.262 c -6.629,-9.303 -8.775,-20.664 -13.772,-30.394 0.354,-3.534 -3.956,-9.125 0.869,-10.597 7.565,-2.234 14.884,-6.281 21.246,-10.85 z M 249.04,332.542 c -3.607,11.981 -11.608,22.311 -17.296,33.5 -6.373,-3.961 -13.26,-6.626 -19.189,-11.539 l -0.26,-27.805 c 1.372,-5.252 7.144,-6.895 8.607,-12.053 9.987,5.758 17.385,12.649 28.138,17.897 z m 74.204,-5.426 c 3.785,14.302 9.112,26.969 15.661,39.712 -5.938,2.917 -12.226,6.364 -18.685,8.949 -8.94,1.639 -17.902,3.366 -26.244,3.873 -3.193,-8.087 -0.599,-19.121 -3.364,-27.118 -1.632,-5.084 0.776,-9.9 0,-15.337 10.423,0.26 19.12,-2.749 27.72,-8.356 1.803,0.092 3.18,-1.454 4.912,-1.723 z m -57.763,9.565 c 1.467,0.174 2.243,-0.17 2.754,1.115 l 0.86,-0.601 c 6.627,0.866 12.146,0.431 18.76,-0.249 1.126,2.664 -0.341,6.273 -0.601,9.554 1.036,10.768 2.498,22.046 3.098,33.761 -17.983,-2.595 -35.274,-4.222 -51.385,-11.715 l -3.615,-0.857 c 5.162,-11.371 12.136,-22.22 16.19,-34.106 3.537,2.494 9.125,4.308 13.939,3.098 z m 111.026,59.769 c -0.169,3.441 -0.51,6.805 -2.498,9.473 -5.065,1.378 -11.359,3.009 -16.69,2.753 -3.785,-8.784 -2.578,-18.512 -7.568,-26.873 -0.603,-4.476 -3.101,-8.181 -4.396,-12.485 7.749,-5.254 17.902,-6.027 24.542,-13 l 5.847,-5.335 c 2.751,14.027 0.513,30.314 0.763,45.467 z M 229.244,369.577 c -1.289,4.995 -4.99,10.073 -6.195,15.67 l -1.793,3.364 c -0.355,-5.688 -1.648,-11.024 -2.073,-16.707 -2.243,3.101 -0.35,7.746 -0.522,11.709 -0.339,3.626 2.24,7.49 0,10.51 l -3.007,3.104 c -0.947,-13.092 -2.838,-25.928 -2.838,-38.494 6.197,3.1 10.491,7.654 16.428,10.844 z m 40.193,11.544 c 6.719,0.081 14.639,4.221 21.779,3.525 -0.092,8.275 -2.416,16.53 0.776,24.029 l -1.038,5.338 c -20.827,1.291 -39.49,1.462 -59.557,0.601 -5.768,-1.463 -8.962,-1.382 -15.314,-1.463 0,-4.476 -2.667,-9.292 1.458,-12.826 1.472,-0.09 2.589,-1.461 3.715,-2.494 0.941,2.404 0.839,5.849 4.115,6.972 4.139,0.249 9.381,0 13.427,-2.075 0,-0.509 -0.17,-0.944 -0.59,-1.291 -4.227,0.69 -8.698,2.243 -13.178,0.947 -7.048,-8.605 3.355,-16.697 5.087,-24.968 l 3.354,-6.117 c 11.615,4.221 24.266,8.18 35.966,9.822 z m 81.769,19.204 3.886,8.351 c -21.179,-0.776 -39.686,4.557 -60.342,5.082 0.339,-5.603 -0.262,-11.539 -1.549,-16.797 l 0.776,-12.565 c 16.872,-1.813 32.794,-4.135 47.42,-13.097 4.652,9.042 8.093,18.692 9.809,29.026 z m 13.091,-128.917 c 0.341,6.365 1.813,12.397 3.87,18.085 -1.207,2.234 -2.249,4.739 -4.392,6.462 -1.711,-6.555 -2.672,-14.99 -9.812,-17.574 -6.708,-0.434 -14.72,-0.857 -20.657,2.584 -0.168,0.348 -0.339,0.687 -0.258,1.294 2.661,0.257 5.076,-1.814 7.739,-2.237 5.861,0.17 14.644,-2.498 17.913,4.558 1.459,4.229 3.262,8.446 3.363,13.266 -4.315,4.82 -10.858,10.335 -16.451,14.208 -1.551,0.262 -2.833,1.892 -4.476,2.406 -4.906,2.414 -11.1,3.531 -15.315,6.552 -1.294,-0.262 -1.986,-0.262 -3.177,0 -1.478,2.582 -5.177,2.494 -7.151,5.083 -4.043,3.349 -10.333,4.56 -14.807,7.486 -10.755,-0.511 -21.948,2.242 -31.25,0.864 v -0.262 c -5.668,-0.774 -11.96,-3.009 -17.122,-4.386 v -0.608 c -3.534,-0.091 -6.281,-4.137 -9.642,-5.596 -6.884,-2.582 -11.1,-8.266 -17.813,-11.196 -4.481,-3.876 -10.493,-6.541 -13.767,-12.32 0.17,-8.261 -0.606,-16.88 1.723,-24.28 32.008,-6.713 66.955,0.35 100.692,-3.787 2.838,0.344 5.773,-0.95 8.096,0.265 l 0.86,-0.606 c 12.652,-0.87 27.365,0.945 38.989,-2.496 1.725,-0.089 2.323,0.776 2.845,2.235 z m -70.919,24.548 c 0.509,1.202 0.509,3.095 -0.521,4.123 -1.123,1.472 -2.925,0.604 -4.225,0 -1.027,-1.63 -3.346,-3.176 -2.494,-5.256 1.717,-1.627 6.889,-3.095 7.24,1.133 z m -13.948,1.377 c -0.176,1.894 -0.517,4.296 -2.844,4.558 -1.202,-0.778 -2.833,-0.778 -3.534,-2.324 0,-1.461 -1.282,-3.179 0,-4.479 2.254,-1.549 5.942,-0.856 6.378,2.245 z"
       inkscape:connector-curvature="0" />
    <path
       id="leftButton"
       d="m 374.88,421.854 c -0.69,1.463 -0.939,3.272 -0.871,4.735 -3.004,1.808 -6.362,-0.18 -9.11,1.892 -2.249,-0.688 -1.722,-3.959 -1.383,-5.777 1.214,-0.85 3.275,0.092 4.997,0.262 2.663,0.87 3.699,-2.834 6.367,-1.112 z m -2.758,2.151 c 0.431,2.754 -2.567,1.553 -3.955,2.324 -1.035,-0.771 -3.269,1.12 -3.269,-1.203 2.408,-0.859 4.657,-0.088 7.224,-1.121 z"
       inkscape:connector-curvature="0" />
    <path
       id="rightButton"
       d="m 208.079,424.607 c 0.091,1.381 1.111,2.573 0.26,3.873 -1.732,2.067 -4.39,0.86 -6.206,0.346 -1.022,-1.377 -1.883,-3.438 -0.852,-5.087 1.97,-1.545 5.071,-1.626 6.798,0.868 z m -1.381,1.722 v 1.12 c -0.95,-0.344 -2.919,0.692 -3.609,-0.86 -0.086,-1.813 0.69,-0.86 1.635,-1.981 0.681,0.518 1.798,0.78 1.974,1.721 z"
       inkscape:connector-curvature="0" />
    <path
       id="powerButton"
       d="m 203.859,497.197 c -0.253,1.813 -0.253,4.143 -2.159,4.748 -1.71,0.851 -3.615,0.851 -4.554,-1.122 0,-1.732 -0.341,-4.746 1.976,-5.347 1.818,10e-4 3.615,-0.26 4.737,1.721 z m -3.52,0.874 c -0.701,0.599 0,1.28 0.249,1.888 -0.17,0.434 -0.599,0.255 -0.857,0.255 -0.609,-0.862 -0.869,-2.143 0.608,-2.143 z"
       inkscape:connector-curvature="0" />
  </g>
</svg>
